<svg xmlns="http://www.w3.org/2000/svg" viewBox="0 0 32 32" width="32" height="32">
  <circle cx="16" cy="16" r="16" fill="#25D366"/>
  <path fill="#fff" d="M23.8 8.2a11.1 11.1 0 0 0-15.7 0A10.9 10.9 0 0 0 6.5 19l-1.4 5.2 5.3-1.4a11 11 0 0 0 5.3 1.3 11.1 11.1 0 0 0 8.1-16zM15.7 22.9a9.2 9.2 0 0 1-4.7-1.3l-.3-.2-3.4.9.9-3.3-.2-.3a9.2 9.2 0 1 1 7.7 4.2zm5-6.9c-.3-.1-1.6-.8-1.9-.9-.3-.1-.5-.1-.7.1-.2.3-.7.9-.9 1.1-.2.2-.3.2-.6.1-.3-.1-1.2-.5-2.3-1.5-.9-.8-1.4-1.8-1.6-2.1-.2-.3 0-.4.1-.6l.4-.4c.1-.1.2-.3.3-.4.1-.1.1-.3 0-.4 0-.1-.7-1.6-.9-2.2-.3-.6-.5-.5-.7-.5h-.6a1.2 1.2 0 0 0-.8.4c-.3.3-1 1-1 2.4s1.1 2.8 1.2 3c.1.2 2.1 3.2 5.1 4.5.7.3 1.3.5 1.7.6.7.2 1.4.2 1.9.1.6-.1 1.6-.7 1.9-1.3.2-.6.2-1.2.2-1.3 0-.2-.2-.3-.5-.4z"/>
</svg>